<?xml version="1.0" encoding="utf-8"?>
<!-- Generator: Adobe Illustrator 23.0.1, SVG Export Plug-In . SVG Version: 6.00 Build 0)  -->
<svg version="1.1" id="Layer_1" xmlns="http://www.w3.org/2000/svg" xmlns:xlink="http://www.w3.org/1999/xlink" x="0px" y="0px"
	 viewBox="0 0 70 70" style="enable-background:new 0 0 70 70;" xml:space="preserve">
<style type="text/css">
	.st0{fill:#1793D0;}
	.st1{fill:#FDFEFD;}
	.st2{fill:#289BD3;}
</style>
<g>
	<g>
		<path class="st0" d="M70.21,28.13c0,1.26,0,2.51,0,3.77c-0.42,1.19-0.41,2.48-0.7,3.7C66.59,48.08,56.48,55.59,45.15,56.7
			c-3.81,0.38-7.59,0.05-11.37-0.63c-5.25-0.94-9.66-3.66-13.76-7.1c0.08-0.29,0.23-0.51,0.49-0.66c1.6-0.86,3-2.05,4.46-3.13
			c1.05,1.64,2.15,3.23,3.64,4.47c2.12,1.76,4.47,2.79,7.16,2.32c7.5-1.32,10.4-10.05,8.15-16.2c-1.16-3.17-3.44-5.13-6.34-6.35
			c0.02-0.59,0.34-1.01,0.65-1.46c1.39-2.01,2.9-3.91,4.19-6.01c0.89-1.45,1.65-2.97,2.5-4.44c2.22-3.83,3.93-7.92,5.26-12.19
			c2.09,0.15,3.98,1,5.83,1.96c6.76,3.51,11.55,8.84,13.47,16.81C69.8,25.42,69.97,26.79,70.21,28.13z"/>
		<path class="st1" d="M20.02,48.98c4.11,3.44,8.51,6.16,13.76,7.1c3.78,0.67,7.55,1,11.37,0.63c11.33-1.12,21.44-8.62,24.36-21.11
			c0.29-1.22,0.27-2.51,0.7-3.7c0,12.48-0.01,24.96,0.02,37.44c0,0.76-0.14,0.91-0.85,0.91c-22.78-0.03-45.57-0.03-68.35,0
			c-0.71,0-0.85-0.15-0.85-0.91c0.03-8.71,0.02-17.43,0.02-26.14c0.34,0.61,0.29,1.32,0.41,1.98c0.63,3.62,1.64,7.08,3.52,10.2
			c0.32,0.6,0.59,1.25,0.97,1.8c5.9,8.51,13.72,12.94,23.68,12.83c4.73-0.05,9.08-1.45,12.99-4.28c2.86-2.07,5.11-4.75,6.81-8.04
			c-0.19-0.03-0.29-0.09-0.38-0.06c-5.02,1.19-10.06,1.29-15.1,0.19c-2.91-0.64-5.73-1.64-8.33-3.15c-2.6-1.5-5.02-3.34-7.2-5.49
			c-0.33-0.37-0.65-0.75-0.99-1.11c-3.84-3.99-6.8-8.62-8.83-13.94c-0.95-2.5-1.62-5.1-2.07-7.78c-0.53,0.12-0.72,0.55-0.97,0.87
			c-1.71,2.24-2.93,4.76-3.7,7.54c-0.32,1.18-0.33,2.44-0.8,3.57c0-12.42,0.01-24.84-0.01-37.26c0-0.66,0.1-0.87,0.78-0.86
			c7.18,0.03,14.36,0.02,21.54,0.02c-1.37,0.63-2.88,0.77-4.24,1.44C11.2,5.15,8.04,11.49,7.27,19.38
			c-0.58,5.97,0.52,11.69,3.06,17.07C12.67,41.42,15.82,45.66,20.02,48.98z"/>
		<path class="st1" d="M70.21,28.13c-0.24-1.35-0.41-2.71-0.73-4.03C67.56,16.14,62.76,10.8,56,7.29c-1.85-0.96-3.74-1.81-5.83-1.96
			c-0.16-0.07-0.31-0.2-0.47-0.21c-3.33-0.15-6.63-0.19-9.82,1.15c-5.56,2.34-9.78,6.38-12.81,11.8
			c-3.55,6.35-5.02,13.15-3.12,20.49c0.46,1.77,1.1,3.48,2.24,5.15c0-0.48,0.03-0.75-0.01-1c-0.36-2.32-0.29-4.63,0.26-6.9
			c0.85-3.52,2.8-5.97,6.24-6.69c1.62-0.34,3.28-0.16,4.89,0.31c2.89,1.22,5.17,3.18,6.34,6.35c2.25,6.14-0.65,14.87-8.15,16.2
			c-2.69,0.47-5.04-0.56-7.16-2.32c-1.49-1.24-2.58-2.83-3.64-4.47c-1.67-3.24-2.76-6.66-3.13-10.37
			c-0.63-6.36,0.46-12.29,3.5-17.79c3.16-5.71,7.83-9.59,13.36-12.37c0.25-0.13,0.61-0.11,0.7-0.56c-1.69-0.92-3.43-1.65-5.21-2.34
			C32.4,1.07,30.5,0.85,28.7,0.22c13.56,0,27.12,0.01,40.68-0.02c0.71,0,0.85,0.15,0.85,0.91C70.2,10.12,70.21,19.12,70.21,28.13z"
			/>
		<path class="st2" d="M28.7,0.22c1.8,0.63,3.7,0.85,5.49,1.54c1.77,0.68,3.52,1.42,5.21,2.34c-0.08,0.45-0.45,0.43-0.7,0.56
			c-5.53,2.78-10.2,6.66-13.36,12.37c-3.04,5.49-4.13,11.43-3.5,17.79c0.37,3.72,1.46,7.14,3.13,10.37
			c-1.47,1.08-2.87,2.27-4.46,3.13c-0.26,0.14-0.41,0.36-0.49,0.66c-4.19-3.32-7.34-7.56-9.69-12.52
			c-2.54-5.38-3.64-11.11-3.06-17.07c0.77-7.9,3.93-14.23,10.99-17.72c1.36-0.67,2.87-0.82,4.24-1.44
			C24.57,0.22,26.64,0.22,28.7,0.22z"/>
		<path class="st2" d="M0.21,38.32c0.47-1.14,0.48-2.39,0.8-3.57c0.77-2.79,1.99-5.3,3.7-7.54c0.25-0.32,0.44-0.75,0.97-0.87
			c0.45,2.68,1.12,5.28,2.07,7.78c2.03,5.31,4.99,9.94,8.83,13.94c0.34,0.36,0.66,0.74,0.99,1.11c-0.36,0.12-0.73,0.19-1.07,0.36
			c-3.54,1.76-7.03,3.66-10.82,4.8c-0.58,0.18-1.14,0.52-1.55,1.05c-1.88-3.12-2.89-6.58-3.52-10.2c-0.12-0.66-0.07-1.37-0.41-1.98
			C0.21,41.57,0.21,39.95,0.21,38.32z"/>
		<path class="st2" d="M37.58,29.43c-1.61-0.47-3.26-0.64-4.89-0.31c-3.44,0.71-5.39,3.17-6.24,6.69c-0.55,2.27-0.62,4.58-0.26,6.9
			c0.04,0.25,0.01,0.51,0.01,1c-1.14-1.66-1.78-3.37-2.24-5.15c-1.9-7.34-0.43-14.14,3.12-20.49c3.03-5.42,7.25-9.46,12.81-11.8
			c3.19-1.34,6.49-1.31,9.82-1.15c0.16,0.01,0.32,0.14,0.47,0.21c-1.32,4.28-3.03,8.36-5.26,12.19c-0.85,1.47-1.61,2.99-2.5,4.44
			c-1.29,2.09-2.8,4-4.19,6.01C37.92,28.42,37.61,28.85,37.58,29.43z"/>
		<path class="st0" d="M4.13,55.37c0.41-0.53,0.96-0.87,1.55-1.05c3.79-1.14,7.28-3.03,10.82-4.8c0.34-0.17,0.71-0.24,1.07-0.36
			c2.19,2.15,4.61,3.99,7.2,5.49c2.6,1.5,5.42,2.51,8.33,3.15c5.04,1.11,10.08,1,15.1-0.19c0.09-0.02,0.2,0.03,0.38,0.06
			c-1.7,3.28-3.95,5.97-6.81,8.04c-3.92,2.84-8.26,4.23-12.99,4.28C18.82,70.11,11,65.69,5.1,57.17
			C4.72,56.62,4.45,55.98,4.13,55.37z"/>
	</g>
</g>
</svg>
